<?xml version="1.0" encoding="UTF-8" standalone="no"?>
<!DOCTYPE svg PUBLIC "-//W3C//DTD SVG 1.1//EN" "http://www.w3.org/Graphics/SVG/1.1/DTD/svg11.dtd">
<svg width="100%" height="100%" viewBox="0 0 2048 2048" version="1.1" xmlns="http://www.w3.org/2000/svg" xmlns:xlink="http://www.w3.org/1999/xlink" xml:space="preserve" xmlns:serif="http://www.serif.com/" style="fill-rule:evenodd;clip-rule:evenodd;stroke-linecap:round;stroke-linejoin:round;stroke-miterlimit:1.5;">
    <g id="レイヤー5">
        <g transform="matrix(1,0,0,1,279.241,0)">
            <path d="M543.36,-0.205C543.36,-0.205 436.344,3.071 436.723,105.724C437.081,202.468 540.008,205.802 540.008,205.802C540.008,205.802 1366.13,206.082 1569.52,206.164C1651.49,206.197 1769.54,1.874 1671.15,1.551C1568.61,1.215 543.36,-0.205 543.36,-0.205Z" style="stroke:black;stroke-width:1px;"/>
        </g>
        <path d="M1752.32,312.144C1579.7,311.041 682.238,311.147 682.238,311.147C682.238,311.147 567.034,307.156 501.237,415.213C381.091,612.527 0.973,1229.21 0.208,1336.35C-1.302,1547.73 106.559,1639.9 204.561,1639.72C407.293,1639.37 572.335,1310.6 572.335,1310.6C572.335,1310.6 412.511,1450.66 317.29,1399.38C130.279,1298.67 331.277,1021.53 502.095,1022.4C615.375,1022.98 731.612,1023.78 919.579,1023.99C1023.79,1024.11 1114.28,1150.31 1057.41,1233.96C981.239,1346.02 604.385,1636.9 604.385,1636.9C604.385,1636.9 1330.47,1345.01 1331.89,1027.09C1332.81,820.049 975.465,813.923 822.073,815.103C615.047,816.695 408.647,881.08 408.647,881.08C408.647,881.08 461.814,792.009 493.701,751.277C528.905,706.309 619.869,611.271 619.869,611.271L1433.23,617.786C1433.23,617.786 1489.27,613.734 1489.17,742.584C1489.1,818.607 1435.05,935.706 1435.05,935.706C1435.05,935.706 1591.15,840.403 1645.66,737.912C1700.18,635.42 1937.72,313.328 1752.32,312.144Z" style="stroke:black;stroke-width:1px;"/>
    </g>
</svg>
