<?xml version="1.0" encoding="UTF-8" standalone="no"?>
<!DOCTYPE svg PUBLIC "-//W3C//DTD SVG 1.1//EN" "http://www.w3.org/Graphics/SVG/1.1/DTD/svg11.dtd">
<svg width="100%" height="100%" viewBox="0 0 2048 2048" version="1.1" xmlns="http://www.w3.org/2000/svg" xmlns:xlink="http://www.w3.org/1999/xlink" xml:space="preserve" xmlns:serif="http://www.serif.com/" style="fill-rule:evenodd;clip-rule:evenodd;stroke-linecap:round;stroke-linejoin:round;stroke-miterlimit:1.5;">
    <g id="レイヤー5">
        <path d="M1229.85,0.445C1185.35,0.749 1088.24,95.209 1088.52,161.571C1088.7,205.652 1183.58,203.567 1229.83,203.913C1338.87,204.727 1339.83,203.801 1431.63,202.348C1515.84,201.015 1638.27,1.874 1539.88,1.551C1437.33,1.215 1309.66,-0.1 1229.85,0.445Z" style="stroke:black;stroke-width:1px;"/>
        <path d="M1094.53,314.112C1027.76,314.804 985.218,317.813 894.194,526.006C856.419,612.407 892.383,613.756 960.373,613.679C1032.9,613.597 1064.79,612.305 1166.19,613.182C1219.56,613.643 1243.24,624.843 1242.61,726.519C1242.24,785.465 1126.3,1018.25 1126.3,1018.25C1126.3,1018.25 612.633,1018.01 513.15,1021.45C315.871,1028.27 4.393,1435.87 0.943,1541.72C-0.763,1594.08 52.829,1638.15 98.582,1638.19C204.044,1638.29 833.868,1637.03 929.428,1637.28C1017.69,1637.52 1089.44,1554.22 1142.58,1438.18C1202.42,1307.49 1475.6,530.415 1491.1,486.407C1511.66,428.053 1497.47,313.682 1435.38,313.135C1291.11,311.864 1298.1,312 1094.53,314.112ZM907.086,1436.91C806.814,1433.21 408.385,1434.42 369.911,1433.64C338.285,1432.99 242.385,1431.64 241.752,1375.53C241.211,1327.58 409.89,1130.3 614.697,1128.69C673.853,1128.22 1086.97,1140.8 1086.97,1140.8C1086.97,1140.8 988.704,1439.92 907.086,1436.91Z" style="stroke:black;stroke-width:1px;"/>
    </g>
</svg>
