<?xml version="1.0" encoding="UTF-8" standalone="no"?>
<!DOCTYPE svg PUBLIC "-//W3C//DTD SVG 1.1//EN" "http://www.w3.org/Graphics/SVG/1.1/DTD/svg11.dtd">
<svg width="100%" height="100%" viewBox="0 0 2048 2048" version="1.1" xmlns="http://www.w3.org/2000/svg" xmlns:xlink="http://www.w3.org/1999/xlink" xml:space="preserve" xmlns:serif="http://www.serif.com/" style="fill-rule:evenodd;clip-rule:evenodd;stroke-linecap:round;stroke-linejoin:round;stroke-miterlimit:1.5;">
    <g id="レイヤー5">
        <g transform="matrix(1,0,0,1,207.61,0)">
            <path d="M507.35,-0.318C507.35,-0.318 410.187,3.251 410.567,105.904C410.925,202.648 509.791,202.892 509.791,202.892C509.791,202.892 1230.83,209.638 1431.63,202.348C1515.79,199.292 1638.27,1.874 1539.88,1.551C1437.33,1.215 507.35,-0.318 507.35,-0.318Z" style="stroke:black;stroke-width:1px;"/>
        </g>
        <path d="M107.098,1231.13C55.869,1231.67 2.175,1330.84 1.395,1389.02C0.757,1436.66 104.19,1433.55 104.19,1433.55L616.406,1429.62C616.406,1429.62 725.147,1429.32 725.004,1373.36C724.867,1319.9 653.605,1229.29 617.046,1229.53C559.113,1229.92 559.426,1229.47 559.426,1229.47L823.192,615.727C823.192,615.727 1031.75,608.464 1227.16,786.878C1356.4,904.874 1009.96,1103.05 956.608,1232.9C902.189,1365.36 918.175,1641.79 1023.79,1641.08C1434.99,1638.3 1433.8,1436.15 1433.8,1436.15C1433.8,1436.15 1125.19,1538.45 1129.51,1338.12C1133.87,1135.65 1532.09,972.472 1604.35,863.759C1633.7,819.587 1545.77,735.305 1546.3,696.088C1547.36,616.267 1731.52,679.384 1732.13,615.453C1732.99,526.237 1842.07,513.915 1844.25,412.747C1846.29,317.593 1786.05,315.618 1786.05,315.618C1786.05,315.618 883.92,313.304 669.635,314.179C615.911,314.399 516.033,457.191 516.811,514.896C517.432,560.948 575.139,613.806 613.014,614.074C682.245,614.564 681.81,615.442 681.81,615.442L403.897,1229.34C403.897,1229.34 204.324,1230.1 107.098,1231.13Z" style="stroke:black;stroke-width:1px;"/>
    </g>
</svg>
