<?xml version="1.0" encoding="UTF-8" standalone="no"?>
<!DOCTYPE svg PUBLIC "-//W3C//DTD SVG 1.1//EN" "http://www.w3.org/Graphics/SVG/1.1/DTD/svg11.dtd">
<svg width="100%" height="100%" viewBox="0 0 2048 2048" version="1.1" xmlns="http://www.w3.org/2000/svg" xmlns:xlink="http://www.w3.org/1999/xlink" xml:space="preserve" xmlns:serif="http://www.serif.com/" style="fill-rule:evenodd;clip-rule:evenodd;stroke-linecap:round;stroke-linejoin:round;stroke-miterlimit:1.5;">
    <g id="レイヤー5">
        <g transform="matrix(2.37596,0,0,1,-2281.82,0)">
            <path d="M1167.64,3.64C1123.15,3.944 1087.27,90.52 1087.55,156.882C1087.73,200.963 1087.38,205.567 1133.63,205.913C1242.68,206.727 1430.4,201.286 1517.83,199.965C1542.87,199.587 1603.05,0.212 1539.88,1.551C1433.77,3.801 1247.46,3.095 1167.64,3.64Z" style="stroke:black;stroke-width:0.55px;"/>
        </g>
        <path d="M308.112,311.736C216.711,313.519 94.216,511.864 92.683,612.799C91.617,682.974 144.301,748.799 206.329,747.142C290.362,744.896 302.032,612.073 413.102,611.229C609.434,609.738 1118.11,618.131 1118.11,618.131C1118.11,618.131 1054.66,762.467 1022.13,815.171C994.981,859.158 922.925,934.359 922.925,934.359C922.925,934.359 615.722,928.317 412.813,931.535C340.474,932.683 201.368,1126.64 317.353,1126.46C412.407,1126.32 801.423,1125.61 801.423,1125.61C801.423,1125.61 721.503,1233.52 620.627,1299.72C557.277,1341.3 204.742,1341.54 118.913,1342.42C60.616,1343.02 1.039,1487.33 0.051,1535.1C-0.908,1581.45 50.621,1639.64 98.483,1639.64C204.405,1639.63 410.317,1639.8 507.899,1638.9C547.381,1638.54 712.581,1530.91 758.577,1481.53C912.613,1316.18 1100.87,1038.41 1336.87,664.155C1387.56,583.783 1435.5,464.373 1437.82,408.435C1440.08,353.941 1436.15,304.547 1362.39,305.587C1230.46,307.447 615.948,305.731 308.112,311.736Z" style="stroke:black;stroke-width:1px;"/>
    </g>
</svg>
