<?xml version="1.0" encoding="UTF-8" standalone="no"?>
<!DOCTYPE svg PUBLIC "-//W3C//DTD SVG 1.1//EN" "http://www.w3.org/Graphics/SVG/1.1/DTD/svg11.dtd">
<svg width="100%" height="100%" viewBox="0 0 2048 2048" version="1.1" xmlns="http://www.w3.org/2000/svg" xmlns:xlink="http://www.w3.org/1999/xlink" xml:space="preserve" xmlns:serif="http://www.serif.com/" style="fill-rule:evenodd;clip-rule:evenodd;stroke-linecap:round;stroke-linejoin:round;stroke-miterlimit:1.5;">
    <g id="レイヤー5">
        <g transform="matrix(2.37596,0,0,1,-2281.82,0)">
            <path d="M1269.3,5.446C1224.81,5.75 1219.14,90.52 1219.42,156.882C1219.6,200.963 1219.4,201.766 1265.64,202.111C1374.69,202.926 1430.4,201.286 1517.83,199.965C1542.87,199.587 1603.05,0.212 1539.88,1.551C1433.77,3.801 1349.11,4.901 1269.3,5.446Z" style="stroke:black;stroke-width:0.55px;"/>
        </g>
        <path d="M613.358,311.736C521.957,313.519 411.927,511.864 410.394,612.799C409.328,682.974 430.247,748.799 492.275,747.142C576.308,744.896 586.665,612.073 697.735,611.229C894.067,609.738 1118.11,618.131 1118.11,618.131C1118.11,618.131 1054.66,762.467 1022.13,815.171C994.981,859.158 922.925,934.359 922.925,934.359C922.925,934.359 615.722,928.317 412.813,931.535C340.474,932.683 201.368,1126.64 317.353,1126.46C412.407,1126.32 801.423,1125.61 801.423,1125.61C801.423,1125.61 721.503,1233.52 620.627,1299.72C557.277,1341.3 204.742,1341.54 118.913,1342.42C60.616,1343.02 1.039,1487.33 0.051,1535.1C-0.908,1581.45 50.621,1639.64 98.483,1639.64C204.405,1639.63 410.317,1639.8 507.899,1638.9C547.381,1638.54 712.581,1530.91 758.577,1481.53C912.613,1316.18 1100.87,1038.41 1336.87,664.155C1387.56,583.783 1435.5,464.373 1437.82,408.435C1440.08,353.941 1436.15,304.547 1362.39,305.587C1230.46,307.447 921.195,305.731 613.358,311.736Z" style="stroke:black;stroke-width:1px;"/>
    </g>
</svg>
