<?xml version="1.0" encoding="UTF-8" standalone="no"?>
<!DOCTYPE svg PUBLIC "-//W3C//DTD SVG 1.1//EN" "http://www.w3.org/Graphics/SVG/1.1/DTD/svg11.dtd">
<svg width="100%" height="100%" viewBox="0 0 2048 2048" version="1.1" xmlns="http://www.w3.org/2000/svg" xmlns:xlink="http://www.w3.org/1999/xlink" xml:space="preserve" xmlns:serif="http://www.serif.com/" style="fill-rule:evenodd;clip-rule:evenodd;stroke-linecap:round;stroke-linejoin:round;stroke-miterlimit:1.5;">
    <g id="レイヤー5">
        <path d="M1025.21,4.76C1025.21,4.76 948.327,113.799 948.266,153.989C948.195,200.411 1023.78,205.127 1023.78,205.127C1023.78,205.127 1433.34,203.699 1531.79,203.694C1580.24,203.692 1635.87,113.65 1636.5,61.984C1637.19,4.841 1580.49,3.023 1580.49,3.023L1025.21,4.76Z" style="stroke:black;stroke-width:1px;"/>
        <path d="M612.542,309.321C548.167,310.095 476.65,353.932 449.004,412.074C352.512,615.011 221.356,1232.57 113.242,1434.41C88.524,1480.55 2.232,1512.56 1.187,1544.44C0.019,1580.07 39.498,1638.13 88.131,1637.37C142.678,1636.53 282.61,1551.95 310.17,1436.41C371.81,1177.99 522.938,808.34 584.145,658.742C599.993,620.006 602.935,618.683 618.494,617.905C687.522,614.453 813.063,613.76 813.063,613.76C813.063,613.76 919.935,919.635 971.25,918.85C1012.16,918.225 1120.97,616.362 1120.97,616.362C1120.97,616.362 1228.77,615.682 1320.01,614.464C1378.08,613.689 1433.5,499.014 1434.86,409.82C1436.25,319.017 1350.36,309.489 1350.36,309.489C1350.36,309.489 817.166,306.86 612.542,309.321Z" style="stroke:black;stroke-width:1px;"/>
    </g>
</svg>
