<?xml version="1.0" encoding="UTF-8" standalone="no"?>
<!DOCTYPE svg PUBLIC "-//W3C//DTD SVG 1.1//EN" "http://www.w3.org/Graphics/SVG/1.1/DTD/svg11.dtd">
<svg width="100%" height="100%" viewBox="0 0 2048 2048" version="1.1" xmlns="http://www.w3.org/2000/svg" xmlns:xlink="http://www.w3.org/1999/xlink" xml:space="preserve" xmlns:serif="http://www.serif.com/" style="fill-rule:evenodd;clip-rule:evenodd;stroke-linecap:round;stroke-linejoin:round;stroke-miterlimit:1.5;">
    <g id="レイヤー5">
        <g transform="matrix(0.52254,0,0,1,602.796,0)">
            <path d="M507.35,-0.318C507.35,-0.318 410.187,3.251 410.567,105.904C410.925,202.648 509.791,202.892 509.791,202.892C509.791,202.892 1150.9,203.346 1355.8,203.302C1584.11,203.253 1590.63,1.847 1492.25,1.524C1389.7,1.188 507.35,-0.318 507.35,-0.318Z" style="stroke:black;stroke-width:1.25px;"/>
        </g>
        <g transform="matrix(0.252661,0,0,1,306.832,0)">
            <path d="M507.35,-0.318C507.35,-0.318 410.187,3.251 410.567,105.904C410.925,202.648 509.791,202.892 509.791,202.892C509.791,202.892 1213.92,199.573 1419.03,201.05C1504.02,201.662 1693.52,0.469 1471.64,0.699C1230.43,0.95 507.35,-0.318 507.35,-0.318Z" style="stroke:black;stroke-width:1.37px;"/>
        </g>
        <path d="M445.832,313.671C445.832,313.671 410.424,317.305 409.647,463.534C408.862,611.158 0.878,1434.65 0.773,1536.81C0.718,1589.9 2.988,1641.32 81.682,1639.26C146.836,1637.56 316.624,1230.91 377.369,1094.28C455.805,917.842 645.181,1077.75 648.854,1123.62C652.541,1169.65 517.174,1237.29 513.454,1330.54C509.165,1438.08 624.466,1640.89 712.032,1640.06C1014.06,1637.19 1037.7,1365.59 1037.7,1365.59C1037.7,1365.59 711.252,1643.44 713.705,1341.39C714.486,1245.25 825.125,1022.71 1111.38,856.727C1167.81,824.007 1168.54,692.311 1203.55,612.731C1240.73,528.235 1335.47,404.407 1334.43,349.751C1333.56,303.727 1282.07,303.597 1282.07,303.597L860.881,303.115C860.881,303.115 820.223,304.25 819.68,354.993C819.128,406.651 819.66,611.572 819.66,611.572L986.744,613.2C986.744,613.2 1025.91,615.657 1024.99,659.508C1023.83,714.469 1021.97,794.564 995.017,824.201C945.123,879.064 819.15,933.847 716.813,933.509C622.699,933.197 465.311,927.753 466.239,867.979C470.194,613.233 661.81,616.286 661.994,612.448C667.65,494.627 668.754,403.768 667.657,358.442C666.544,312.465 615.546,312.511 615.546,312.511L445.832,313.671Z" style="stroke:black;stroke-width:1px;"/>
    </g>
</svg>
