<?xml version="1.0" encoding="UTF-8" standalone="no"?>
<!DOCTYPE svg PUBLIC "-//W3C//DTD SVG 1.1//EN" "http://www.w3.org/Graphics/SVG/1.1/DTD/svg11.dtd">
<svg width="100%" height="100%" viewBox="0 0 4096 2048" version="1.1" xmlns="http://www.w3.org/2000/svg" xmlns:xlink="http://www.w3.org/1999/xlink" xml:space="preserve" xmlns:serif="http://www.serif.com/" style="fill-rule:evenodd;clip-rule:evenodd;stroke-linecap:round;stroke-linejoin:round;stroke-miterlimit:1.5;">
    <g id="レイヤー5">
        <path d="M724.4,0.075C724.4,0.075 613.282,5.957 549.598,105.904C488.16,202.326 583.05,202.892 583.05,202.892C583.05,202.892 1840.09,209.638 2040.9,202.348C2125.05,199.292 2256.34,2.992 2157.95,2.67C2055.4,2.334 724.4,0.075 724.4,0.075Z" style="stroke:black;stroke-width:1px;"/>
        <path d="M410.887,373.305C396.971,414.275 239.309,837.235 133.272,1137.75C101.925,1226.58 3.21,1386.11 3.165,1427.61C3.057,1525.03 110.855,1634.91 208.276,1635.83C610.6,1639.58 955.214,1291.68 955.214,1291.68C955.214,1291.68 1126.64,1636.4 1231.34,1637.33C1537.08,1640.05 1638.62,1472.93 1638.62,1472.93C1638.62,1472.93 1897.22,1639.11 2048.16,1636.38C2203.3,1633.56 2453.16,1125.81 2453.16,1125.81C2453.16,1125.81 2162.28,1430.96 2103.9,1432.32C2054.24,1433.47 1738.81,1221.14 1740.04,1024.28C1741.35,816.711 1714.43,727.127 1695.93,663.74C1681.07,612.801 1819.39,642.759 1846.17,615.056C1905.84,553.328 1949.15,480.465 1975.14,429.566C2027.42,327.224 1904.34,312.757 1848.37,313.35C1664.33,315.298 614.727,307.024 472.401,308.533C443.939,308.835 414.782,361.838 410.887,373.305ZM1233.13,611.316C1289.54,609.886 1362.3,616.541 1432.31,616.412C1625.51,616.058 1633.8,1401.8 1633.8,1401.8C1633.8,1401.8 1576.95,1433.76 1533.93,1433.73C1438.28,1433.68 1248.39,1345.58 1198.94,1232.79C1108.3,1026.08 1121.63,614.141 1233.13,611.316ZM824.248,612.219C925.057,612.686 925.005,738.288 926.475,818.395C928.05,904.272 918.985,1230.87 918.985,1230.87C918.985,1230.87 616.022,1433.21 517.554,1432.89C414.137,1432.56 307.863,1427.95 306.098,1325.55C304.465,1230.79 470.422,613.075 571.388,613.07C673.097,613.066 727.302,611.77 824.248,612.219Z" style="stroke:black;stroke-width:1px;"/>
    </g>
</svg>
