<?xml version="1.0" encoding="UTF-8" standalone="no"?>
<!DOCTYPE svg PUBLIC "-//W3C//DTD SVG 1.1//EN" "http://www.w3.org/Graphics/SVG/1.1/DTD/svg11.dtd">
<svg width="100%" height="100%" viewBox="0 0 2048 2048" version="1.1" xmlns="http://www.w3.org/2000/svg" xmlns:xlink="http://www.w3.org/1999/xlink" xml:space="preserve" xmlns:serif="http://www.serif.com/" style="fill-rule:evenodd;clip-rule:evenodd;stroke-linecap:round;stroke-linejoin:round;stroke-miterlimit:1.5;">
    <g id="レイヤー5">
        <path d="M1229.85,0.445C1185.35,0.749 1088.24,95.209 1088.52,161.571C1088.7,205.652 1183.58,203.567 1229.83,203.913C1338.87,204.727 1339.83,203.801 1431.63,202.348C1515.84,201.015 1638.27,1.874 1539.88,1.551C1437.33,1.215 1309.66,-0.1 1229.85,0.445Z" style="stroke:black;stroke-width:1px;"/>
        <path d="M0.243,1543.66C-0.471,1588.33 2.013,1638.77 39.948,1638.13C87.968,1637.31 155.265,1548.13 207.09,1547.05C274.983,1545.64 507.967,1422.55 819.659,1236.53C1020.73,1116.53 1136.24,897.382 1233.96,731.999C1290.66,636.037 1421.47,430.775 1434.17,408.615C1493.53,305.097 1444.86,301.725 1434.71,301.845C1189.69,304.734 944.659,306.838 699.649,310.508C654.816,311.179 621.359,391.69 611.491,410.256C563.751,500.083 1.184,1484.85 0.243,1543.66ZM711.309,612.263C822.974,612.354 820.519,610.953 1028.02,613.825C1325.01,617.935 617.843,1271.03 412.067,1274.31C301.088,1276.07 448.763,996.927 553.101,817.97C619.14,704.702 675.074,612.234 711.309,612.263Z" style="stroke:black;stroke-width:1px;"/>
    </g>
</svg>
