<?xml version="1.0" encoding="UTF-8" standalone="no"?>
<!DOCTYPE svg PUBLIC "-//W3C//DTD SVG 1.1//EN" "http://www.w3.org/Graphics/SVG/1.1/DTD/svg11.dtd">
<svg width="100%" height="100%" viewBox="0 0 2048 2048" version="1.1" xmlns="http://www.w3.org/2000/svg" xmlns:xlink="http://www.w3.org/1999/xlink" xml:space="preserve" xmlns:serif="http://www.serif.com/" style="fill-rule:evenodd;clip-rule:evenodd;stroke-linecap:round;stroke-linejoin:round;stroke-miterlimit:1.5;">
    <g id="レイヤー5">
        <g transform="matrix(1,0,0,1,-464.194,0)">
            <path d="M1229.85,0.445C1185.35,0.749 1088.24,95.209 1088.52,161.571C1088.7,205.652 1183.58,203.567 1229.83,203.913C1338.87,204.727 1339.83,203.801 1431.63,202.348C1515.84,201.015 1638.27,1.874 1539.88,1.551C1437.33,1.215 1309.66,-0.1 1229.85,0.445Z" style="stroke:black;stroke-width:1px;"/>
        </g>
        <path d="M1228.99,309.289C1181.01,310.783 1026.6,517.215 1025.64,569.402C1024.84,612.525 1025.25,613.345 1076.67,613.672C1126.15,613.986 1150.51,614.566 1232.45,613.949C1296.62,613.466 1366.66,457.084 1390.04,406.406C1404.27,375.575 1431.89,305.688 1371.33,305.446C1339.37,305.319 1317.73,306.526 1228.99,309.289Z" style="stroke:black;stroke-width:1px;"/>
        <g transform="matrix(1,0,0,1,-390.761,0)">
            <path d="M1004.6,315.347C956.624,316.841 844.17,517.215 843.205,569.402C843.2,569.66 802.984,803.478 727.107,1004.68C571.083,1418.39 390.323,1549.23 391.171,1594.98C391.974,1638.33 421.421,1639.29 445.573,1639.08C466.356,1638.89 582.814,1525.3 676.64,1411.76C785.859,1279.59 863.15,1026.64 1008.97,1024.11C1209.47,1020.64 1414.44,1032.15 1336.55,1138.5C1270.94,1228.08 1081.63,1402.02 1055.89,1431.25C1001.67,1492.82 854.197,1436.14 805.114,1496C724.21,1594.67 683.895,1635.6 724.145,1635.28C802.484,1634.65 1007.4,1638.58 1119.61,1636.79C1210.66,1635.33 1366.81,1505.14 1366.78,1428C1366.75,1369.03 1267.05,1379.6 1267.56,1363.1C1271.51,1233.66 1574.89,1128.19 1573.77,959.696C1572.86,822.409 931.24,914.565 931.24,914.565C931.24,914.565 1034.8,615.934 1076.67,613.672C1126.08,611.003 1150.51,614.566 1232.45,613.949C1296.62,613.466 1366.66,457.084 1390.04,406.406C1404.27,375.575 1431.64,312.479 1371.08,312.238C1339.12,312.111 1093.35,312.584 1004.6,315.347Z" style="stroke:black;stroke-width:1px;"/>
        </g>
    </g>
</svg>
