<?xml version="1.0" encoding="UTF-8" standalone="no"?>
<!DOCTYPE svg PUBLIC "-//W3C//DTD SVG 1.1//EN" "http://www.w3.org/Graphics/SVG/1.1/DTD/svg11.dtd">
<svg width="100%" height="100%" viewBox="0 0 2048 2048" version="1.1" xmlns="http://www.w3.org/2000/svg" xmlns:xlink="http://www.w3.org/1999/xlink" xml:space="preserve" xmlns:serif="http://www.serif.com/" style="fill-rule:evenodd;clip-rule:evenodd;stroke-linecap:round;stroke-linejoin:round;stroke-miterlimit:1.5;">
    <g id="レイヤー5">
        <path d="M507.35,-0.318C507.35,-0.318 410.187,3.251 410.567,105.904C410.925,202.648 509.791,202.892 509.791,202.892C509.791,202.892 1230.83,209.638 1431.63,202.348C1515.79,199.292 1638.27,1.874 1539.88,1.551C1437.33,1.215 507.35,-0.318 507.35,-0.318Z" style="stroke:black;stroke-width:1px;"/>
        <path d="M409.297,316.09C360.963,316.732 312.034,363.692 311.703,410.504C311.38,456.299 310.337,519.533 311.42,552.439C313.478,615.031 409.307,612.315 409.307,612.315L616.049,614.249C616.049,614.249 580.059,725.671 539.784,813.738C510.575,877.609 496.32,904.74 497.219,938.594C498.445,984.752 502.846,1024.17 613.123,1022.28C662.296,1021.44 703.424,918.029 743.011,816.729C783.547,713.002 823.138,611.03 823.138,611.03L1163.4,614.498C1163.4,614.498 856.577,1434.61 744.068,1736.36C729.678,1774.95 725.328,1836.85 817.18,1839.94C874.33,1841.87 1055.4,1407.55 1223.69,1022.1C1314.88,813.258 1388.43,603.621 1438.41,494.074C1465.79,434.063 1484.4,443.7 1484.31,408.837C1484.02,306.815 1434.11,307.042 1434.11,307.042C1434.11,307.042 708.312,312.113 409.297,316.09Z" style="stroke:black;stroke-width:1px;"/>
    </g>
</svg>
