<?xml version="1.0" encoding="UTF-8" standalone="no"?>
<!DOCTYPE svg PUBLIC "-//W3C//DTD SVG 1.1//EN" "http://www.w3.org/Graphics/SVG/1.1/DTD/svg11.dtd">
<svg width="100%" height="100%" viewBox="0 0 2048 2048" version="1.1" xmlns="http://www.w3.org/2000/svg" xmlns:xlink="http://www.w3.org/1999/xlink" xml:space="preserve" xmlns:serif="http://www.serif.com/" style="fill-rule:evenodd;clip-rule:evenodd;stroke-linecap:round;stroke-linejoin:round;stroke-miterlimit:1.5;">
    <g id="レイヤー5">
        <path d="M615.24,309.838C529.174,311.871 462.577,465.571 460.887,516.909C459.256,566.462 477.9,673.177 495.782,673.234C517.69,673.305 531.221,575.572 558.619,632.789C613.06,746.483 318.377,1226.89 240.519,1367.18C206.463,1428.54 5.345,1436.66 2.291,1488.88C-0.951,1544.3 1.93,1639.35 55.114,1639.43C114.845,1639.52 304.662,1640.85 408.496,1639.28C504.931,1637.82 619.599,1476.19 618.484,1432.92C617.465,1393.34 375.826,1431.11 406.301,1366.69C495.274,1178.64 653.747,815.726 723.991,656.943C743.763,612.248 770.939,614.937 770.939,614.937C770.939,614.937 1025.2,613.763 1179.99,614.221C1233.08,614.378 1341.1,410.267 1339.15,365.247C1336.82,311.397 1294.77,307.902 1294.77,307.902C1294.77,307.902 819.07,305.025 615.24,309.838Z" style="stroke:black;stroke-width:1px;"/>
        <path d="M714.539,0.552C684.787,0.109 615.097,132.411 614.88,166.013C614.625,205.413 661.05,204.52 661.05,204.52C661.05,204.52 818.931,204.834 915.408,204.187C973.765,203.796 1023.73,94.331 1024.81,47.109C1025.83,2.429 986.756,1.834 986.756,1.834C986.756,1.834 820.138,2.124 714.539,0.552Z" style="stroke:black;stroke-width:1px;"/>
    </g>
</svg>
