<?xml version="1.0" encoding="UTF-8" standalone="no"?>
<!DOCTYPE svg PUBLIC "-//W3C//DTD SVG 1.1//EN" "http://www.w3.org/Graphics/SVG/1.1/DTD/svg11.dtd">
<svg width="100%" height="100%" viewBox="0 0 2048 2048" version="1.1" xmlns="http://www.w3.org/2000/svg" xmlns:xlink="http://www.w3.org/1999/xlink" xml:space="preserve" xmlns:serif="http://www.serif.com/" style="fill-rule:evenodd;clip-rule:evenodd;stroke-linecap:round;stroke-linejoin:round;stroke-miterlimit:1.5;">
    <g id="レイヤー5">
        <g transform="matrix(0.437235,0,0,1,129.493,0)">
            <path d="M507.35,-0.318C507.35,-0.318 410.187,3.251 410.567,105.904C410.925,202.648 509.791,202.892 509.791,202.892C509.791,202.892 915.226,202.473 1272.25,199.601C1572.33,197.187 1572.84,1.995 1474.46,1.672C1371.91,1.336 507.35,-0.318 507.35,-0.318Z" style="stroke:black;stroke-width:1.3px;"/>
        </g>
        <g transform="matrix(0.338089,0,0,1,894.794,0)">
            <path d="M745.792,1.497C745.792,1.497 387.164,8.64 384.121,111.288C381.424,202.227 509.791,202.892 509.791,202.892C509.791,202.892 1012.38,204.114 1214.94,201.515C1570.63,196.951 1638.27,1.874 1539.88,1.551C1437.33,1.215 745.792,1.497 745.792,1.497Z" style="stroke:black;stroke-width:1.34px;"/>
        </g>
        <path d="M307.75,306.382C259.212,308.369 204.562,360.227 205.06,409.792C205.607,464.242 205.021,581.26 205.021,581.26C205.021,581.26 207.867,612.879 228.296,613.648C296.785,616.224 295.256,659.079 296.712,724.255C298.785,817.017 249.392,1100.17 200.079,1233.27C159.371,1343.15 -1.132,1491.31 0.976,1543.28C2.85,1589.47 54.461,1641.65 99.77,1641.59C158.183,1641.5 325.209,1371.93 458.961,1257.38C636.183,1105.59 917.415,1115.65 1231.73,818.291C1309.13,745.057 1342.66,630.427 1376.31,562.344C1400.38,513.645 1433.55,459.702 1433.65,409.792C1433.73,368.879 1434.25,368.427 1434.82,347.304C1436.05,301.997 1401.23,304.329 1401.23,304.329C1401.23,304.329 990.903,310.341 897.291,313.457C820.698,316.007 817.718,314.959 820.197,410.157C821.794,471.503 820.249,580.98 820.249,580.98C820.249,580.98 821.307,612.252 851.396,611.553C875.33,610.997 961.183,612.557 961.183,612.557C961.183,612.557 955.127,812.249 685.584,899.253C612.919,922.708 571.741,1011.86 538.63,1020.13C396.307,1055.69 568.681,613.807 616.458,614.674C640.955,615.119 675.743,614.44 699.135,613.066C724.223,611.591 725.976,579.311 725.976,579.311C725.976,579.311 729.973,410.623 728.923,337.278C728.551,311.297 691.767,308.412 691.767,308.412C691.767,308.412 411.007,302.154 307.75,306.382Z" style="stroke:black;stroke-width:1px;"/>
    </g>
</svg>
