<?xml version="1.0" encoding="UTF-8" standalone="no"?>
<!DOCTYPE svg PUBLIC "-//W3C//DTD SVG 1.1//EN" "http://www.w3.org/Graphics/SVG/1.1/DTD/svg11.dtd">
<svg width="100%" height="100%" viewBox="0 0 2048 2048" version="1.1" xmlns="http://www.w3.org/2000/svg" xmlns:xlink="http://www.w3.org/1999/xlink" xml:space="preserve" xmlns:serif="http://www.serif.com/" style="fill-rule:evenodd;clip-rule:evenodd;stroke-linecap:round;stroke-linejoin:round;stroke-miterlimit:1.5;">
    <g id="レイヤー5">
        <path d="M410.311,313.144C348.188,313.867 265.504,413.384 205.083,611.782C172.123,720.01 165.413,864.742 202.871,862.42C237.641,860.265 409.593,770.9 409.49,716.212C409.41,673.204 296.675,710.381 297.165,658.259C297.275,646.624 344.605,617.229 412.586,616.08C616.516,612.635 821.19,613.469 922.591,614.346C975.969,614.808 1025.14,620.245 1024.51,721.921C1024.13,780.867 919.897,1022.09 919.897,1022.09C919.897,1022.09 612.633,1018.01 513.15,1021.45C315.871,1028.27 4.393,1435.87 0.943,1541.72C-0.763,1594.08 52.829,1638.15 98.582,1638.19C204.044,1638.29 613.921,1640.39 709.452,1638.03C770.38,1636.52 824.378,1549.27 877.511,1433.23C937.353,1302.54 1121.47,869.546 1232.69,621.09C1325.29,414.24 1383.83,510.1 1406.53,465.896C1434.8,410.859 1436.76,313.189 1374.66,312.642C1230.39,311.371 613.88,310.775 410.311,313.144ZM698.791,1433.47C622.07,1432.46 408.385,1434.42 369.911,1433.64C338.285,1432.99 242.385,1431.64 241.752,1375.53C241.211,1327.58 411.039,1127.13 615.846,1125.52C675.002,1125.06 881.619,1127.14 881.619,1127.14C881.619,1127.14 773.584,1434.45 698.791,1433.47Z" style="stroke:black;stroke-width:1px;"/>
        <g transform="matrix(2.37596,0,0,1,-2169.06,0)">
            <path d="M1167.64,3.64C1123.15,3.944 1087.27,90.52 1087.55,156.882C1087.73,200.963 1087.38,205.567 1133.63,205.913C1242.68,206.727 1430.4,201.286 1517.83,199.965C1542.87,199.587 1603.05,0.212 1539.88,1.551C1433.77,3.801 1247.46,3.095 1167.64,3.64Z" style="stroke:black;stroke-width:0.55px;"/>
        </g>
    </g>
</svg>
