<?xml version="1.0" encoding="UTF-8" standalone="no"?>
<!DOCTYPE svg PUBLIC "-//W3C//DTD SVG 1.1//EN" "http://www.w3.org/Graphics/SVG/1.1/DTD/svg11.dtd">
<svg width="100%" height="100%" viewBox="0 0 2048 2048" version="1.1" xmlns="http://www.w3.org/2000/svg" xmlns:xlink="http://www.w3.org/1999/xlink" xml:space="preserve" xmlns:serif="http://www.serif.com/" style="fill-rule:evenodd;clip-rule:evenodd;stroke-linecap:round;stroke-linejoin:round;stroke-miterlimit:1.5;">
    <g id="レイヤー5">
        <path d="M820.842,0.903C724.247,0.877 656.658,117.818 615.182,205.055C422.34,610.66 -0.394,1524.53 2.043,1579.1C4.642,1637.29 5.031,1636.8 97.183,1637.97C147.181,1638.6 208.883,1431.74 306.733,1432.38C609.116,1434.38 614.193,1641.46 670.154,1641.61C726.685,1641.76 819.979,1544.27 820.46,1435.24C820.969,1319.73 718.475,1230.51 508.852,1229.71C410.459,1229.33 310.573,1232.28 310.573,1232.28L612.921,613.529C612.921,613.529 922.817,613.257 1126.38,615.668C1226.83,616.858 1335.84,513.405 1335.49,411.647C1335.32,360.158 1333.83,311.989 1226.89,312.095C1024.44,312.294 764.274,313.398 764.274,313.398C764.274,313.398 796.076,204.257 820.147,204.069C922.186,203.275 1124.28,206.153 1227.71,205.205C1339.48,204.182 1435.91,103.233 1435.65,48.742C1435.43,0.953 1434.76,1.518 1397.49,1.585C1230.83,1.886 1025.1,0.956 820.842,0.903Z" style="stroke:black;stroke-width:1px;"/>
        <path d="M817.282,916.004C766.115,915.351 504.435,1125.7 821.682,1128.46C917.806,1129.3 976.398,1072.91 977.538,1023.5C979.938,919.505 973.461,917.999 817.282,916.004Z" style="stroke:black;stroke-width:1px;"/>
    </g>
</svg>
