<?xml version="1.0" encoding="UTF-8" standalone="no"?>
<!DOCTYPE svg PUBLIC "-//W3C//DTD SVG 1.1//EN" "http://www.w3.org/Graphics/SVG/1.1/DTD/svg11.dtd">
<svg width="100%" height="100%" viewBox="0 0 2048 2048" version="1.1" xmlns="http://www.w3.org/2000/svg" xmlns:xlink="http://www.w3.org/1999/xlink" xml:space="preserve" xmlns:serif="http://www.serif.com/" style="fill-rule:evenodd;clip-rule:evenodd;stroke-linecap:round;stroke-linejoin:round;stroke-miterlimit:1.5;">
    <g id="レイヤー5">
        <path d="M618.548,313.035C556.425,313.758 470.799,409.737 410.378,608.135C377.418,716.363 373.688,864.742 411.146,862.42C445.916,860.265 617.209,770.9 617.107,716.212C617.026,673.204 504.479,710.381 504.969,658.259C505.079,646.624 549.09,617.229 617.071,616.08C821,612.635 821.19,613.469 922.591,614.346C975.969,614.808 1025.14,620.245 1024.51,721.921C1024.13,780.867 919.897,1022.09 919.897,1022.09C919.897,1022.09 612.633,1018.01 513.15,1021.45C315.871,1028.27 4.393,1435.87 0.943,1541.72C-0.763,1594.08 52.829,1638.15 98.582,1638.19C204.044,1638.29 613.921,1640.39 709.452,1638.03C770.38,1636.52 824.378,1549.27 877.511,1433.23C937.353,1302.54 1121.47,869.546 1232.69,621.09C1325.29,414.24 1383.83,510.1 1406.53,465.896C1434.8,410.859 1436.76,313.189 1374.66,312.642C1230.39,311.371 822.118,310.667 618.548,313.035ZM698.791,1433.47C622.07,1432.46 408.385,1434.42 369.911,1433.64C338.285,1432.99 242.385,1431.64 241.752,1375.53C241.211,1327.58 411.039,1127.13 615.846,1125.52C675.002,1125.06 881.619,1127.14 881.619,1127.14C881.619,1127.14 773.584,1434.45 698.791,1433.47Z" style="stroke:black;stroke-width:1px;"/>
        <g transform="matrix(2.37596,0,0,1,-2169.06,0)">
            <path d="M1257.96,3.64C1213.47,3.944 1173.29,90.52 1173.56,156.882C1173.75,200.963 1172.91,205.567 1219.16,205.913C1328.21,206.727 1430.4,201.286 1517.83,199.965C1542.87,199.587 1603.05,0.212 1539.88,1.551C1433.77,3.801 1337.78,3.095 1257.96,3.64Z" style="stroke:black;stroke-width:0.55px;"/>
        </g>
    </g>
</svg>
